<?xml version="1.0" encoding="utf-8"?>
<!-- Generator: Adobe Illustrator 22.1.0, SVG Export Plug-In . SVG Version: 6.00 Build 0)  -->
<svg version="1.1" id="el_xvtAn3Vrj"
	 xmlns="http://www.w3.org/2000/svg" xmlns:xlink="http://www.w3.org/1999/xlink" x="0px" y="0px" width="450px" height="444px"
	 viewBox="0 0 450 444" style="enable-background:new 0 0 450 444;" xml:space="preserve">
<style type="text/css">
	.st0{fill:#245E82;}
	.st1{fill:#18577C;}
</style>
<metadata>
	<sfw>
		<slices></slices>
		<sliceSourceBounds  bottomLeftOrigin="true" height="440" width="439.9" x="0" y="2.3"></sliceSourceBounds>
	</sfw>
</metadata>
<ellipse class="st0" cx="225.9" cy="221.7" rx="220" ry="220"/>
<title>main_globe_animated</title>
<g id="el_ZXZOA0SueF">
	<path id="el_Khf9XY6630" class="st1" d="M275.3,10.2l4.4-1.6C187-15.3,89.5,24,39.3,105.5c1.6,2.6,3.7,4.8,6.2,6.5
		c4.5,3.5,9.8,5.9,13.6,10.2c2.3,2.8,4,6.1,5,9.6c1.9,4.2,2,9,0.5,13.4c-2.3,4.2-6.5,7-11.2,7.6c-4.6,0.6-9.3,0.7-14,0.4
		c-8.1,0.1-16.1,1.5-23.8,4.1C-2.1,215.3,4.9,278.1,34.9,330.8c14.7,5.4,28.9,12,40.3,22.6c10.3,9.5,19.2,22.7,33.1,24.3
		c2.2,0.1,4.4,0.3,6.6,0.7c7.4,1.7,12,9.4,13.2,17c1.1,7.4,0,15.1-3.1,21.9c40.2,20.7,85.8,28.5,130.6,22.2
		c3.4-14.4,0.1-29.6-8.9-41.4c-4.2-5-9.7-9.1-13.4-14.4c-4.3-6.8-6.5-14.7-6.3-22.8c-2.6-11.5-5.5-22.7-15-29
		c-8.7-5.9-20-5-30.3-3.2c-17.6,3.5-34.4,10.4-49.4,20.1c-3.4,2.2-7.6,4.9-11.8,3.8c-2.5-0.9-4.6-2.6-6.2-4.8
		c-7.2-8-14.4-16.4-18.9-26.1s-5.6-21.9-0.1-31.3s18.3-14.6,27.7-9.5s15.3,18.8,25.5,16.7c5.9-1.4,9.4-8.1,9.1-14.2
		s-2.7-11.8-4.4-17.9c-3.3-11-3.8-22.7-1.6-34c1.9-10,6.5-23.5-2.4-31.6c-3.5-3.1-8-4.4-11.4-8.1c-3.2-3.9-5.5-8.3-6.9-13.1
		c-2.7-9.5-2.7-19.4-5.5-28.9c-2.3-8.4-6.4-16.1-12.2-22.6c-6.8-7.7-18.9-15.1-21.6-25.5c-2.4-9.3,1.6-20.1,7.9-26.9
		c7.9-8.6,25.8-17.8,35.1-5.2c2.7,4.4,4.4,9.3,5,14.4c2.8,13.9,7.2,27.5,12.9,40.5c1.5,4.5,4.4,8.4,8.4,11c4.9,2.8,11,1.4,16.6,0.1
		c19.1-4.9,31.7-10.4,44.8-25.5c10.8-12.9,19.1-27.6,24.7-43.5C254.3,46.6,258.9,23.5,275.3,10.2z"/>
	<path id="el_mW4KbsUzek" class="st1" d="M438.7,165.4c-1,0.6-1.8,1.4-2.6,2.3c-2.5,4-5.9,7.3-9.9,9.9c-4,2.3-10.3,1.8-12.3-2.2
		c-1.5-3-0.7-6.6-2.2-9.6c-3-6.9-13.7-5.9-18.5-11.8c-3.9-4.8-2.1-11.6,1.5-16.7s8.5-8.4,11.5-13.6c3.6-6.2,5.1-13.5,4-20.7
		c-18.4-28.8-43.3-52.9-72.6-70.5c-3,18.5-12.3,35.3-26.3,47.8c-11.2,9.9-25.5,16.6-34.2,28.7c-5.8,8.1-7.5,21.2,0.9,26
		c6.5,3.9,17.5,1.6,20,8.9c1.5,3.9-1.2,8.2-4,11.1c-10.3,10.5-26.8,14.3-33.8,26.9c-6.5,11.7-2.4,26.4,9.3,32.9
		c4.8,2.7,10.3,3.7,15.7,2.8c15-2.3,24.2-17.1,37.7-23.6c6.7-2.9,13.8-4.6,21.1-5.1c3.2-0.7,6.5-0.4,9.5,0.9c7.9,5,1,15.4-4.5,19.1
		c-10.2,7-23.8,11.2-35.1,16.4c-9.4,4.3-18.8,8.6-27.1,14.8c-13.6,10.3-15.4,23.3-8.7,38.4c3.8,8.5,7.9,17.2,15.2,23.1
		c6.9,5.5,16,7.8,24.8,7.9c7.6,0.1,15.1-1.4,22.7-1.3c4.9-0.1,9.8,0.9,14.4,2.8c6.4,2.9,6.1,5.8,8.2,11.9c1.6,4.8,3.9,9.4,6.8,13.6
		c5.7,8.2,13.8,14.5,23.1,18.1c1.9,0.8,4,1.3,6,1.7c40.6-52.2,55.7-119.8,41-184.3C440,169.7,439.4,167.5,438.7,165.4z"/>
</g>
</svg>
