<svg id="Capa_1" enable-background="new 0 0 512.025 512.025" height="512" viewBox="0 0 512.025 512.025" width="512" xmlns="http://www.w3.org/2000/svg"><g><g><g><g><path d="m393.915 506.934h-378.915c-8.284 0-15-6.716-15-15v-435.451c0-8.284 6.716-15 15-15h482c8.284 0 15 6.716 15 15v332.772z" fill="#f9f2f2"/><path d="m497 41.483h-240.969v465.451h137.884l118.085-117.679v-332.772c0-8.284-6.716-15-15-15z" fill="#e7e2ee"/></g><g><g fill="#bebcdd"><path d="m316.025 147.443c-6.286 0-11.98-4.051-14.115-9.946-2.13-5.881-.235-12.687 4.605-16.644 4.871-3.982 11.812-4.462 17.216-1.27 5.378 3.177 8.231 9.68 7.004 15.79-1.391 6.929-7.638 12.07-14.71 12.07z"/><path d="m436.025 147.443c-6.286 0-11.98-4.051-14.115-9.946-2.129-5.879-.232-12.689 4.605-16.644 4.871-3.982 11.812-4.462 17.216-1.27 5.378 3.177 8.231 9.68 7.004 15.79-1.391 6.929-7.638 12.07-14.71 12.07z"/><path d="m376.025 147.443c-6.286 0-11.98-4.051-14.115-9.946-2.13-5.881-.235-12.687 4.605-16.644 4.872-3.982 11.812-4.462 17.216-1.27 5.378 3.177 8.231 9.68 7.004 15.79-1.391 6.929-7.638 12.07-14.71 12.07z"/></g><g><g fill="#e7e2ee"><path d="m76.025 387.444c-6.287 0-11.979-4.046-14.115-9.943-2.134-5.889-.23-12.682 4.605-16.647 4.865-3.989 11.818-4.459 17.216-1.27 5.378 3.177 8.231 9.68 7.004 15.79-1.392 6.931-7.636 12.07-14.71 12.07z"/><path d="m136.025 387.444c-6.283 0-11.983-4.047-14.119-9.943-2.131-5.881-.229-12.693 4.608-16.647 4.872-3.983 11.811-4.463 17.216-1.27 5.378 3.177 8.231 9.68 7.004 15.79-1.391 6.931-7.635 12.07-14.709 12.07z"/><path d="m196.025 387.444c-6.286 0-11.979-4.046-14.115-9.943-2.131-5.881-.234-12.691 4.605-16.647 4.872-3.983 11.812-4.463 17.216-1.27 5.378 3.177 8.231 9.68 7.004 15.79-1.392 6.931-7.636 12.07-14.71 12.07z"/><path d="m76.025 327.444c-6.288 0-11.98-4.049-14.115-9.946-2.129-5.879-.232-12.689 4.605-16.644 4.86-3.973 11.827-4.478 17.218-1.27 5.372 3.196 8.227 9.665 7.003 15.79-1.387 6.931-7.641 12.07-14.711 12.07z"/><path d="m136.025 327.444c-6.288 0-11.98-4.05-14.115-9.946-2.13-5.881-.235-12.687 4.605-16.644 4.86-3.973 11.827-4.477 17.218-1.27 5.37 3.195 8.232 9.667 7.003 15.79-1.393 6.931-7.637 12.07-14.711 12.07z"/><path d="m196.025 327.444c-6.288 0-11.98-4.049-14.115-9.946-2.13-5.881-.235-12.687 4.605-16.644 4.871-3.982 11.812-4.462 17.216-1.27 5.378 3.177 8.231 9.68 7.004 15.79-1.392 6.929-7.637 12.07-14.71 12.07z"/></g><path d="m436.025 267.444c-6.283 0-11.98-4.05-14.115-9.943-2.131-5.881-.234-12.692 4.605-16.647 4.871-3.982 11.813-4.462 17.216-1.27 5.381 3.179 8.231 9.677 7.004 15.79-1.391 6.928-7.636 12.07-14.71 12.07z" fill="#bebcdd"/><path d="m376.025 267.444c-6.284 0-11.98-4.049-14.115-9.943-2.131-5.882-.235-12.691 4.605-16.647 4.872-3.982 11.812-4.462 17.216-1.27 5.378 3.177 8.231 9.68 7.004 15.79-1.391 6.928-7.638 12.07-14.71 12.07z" fill="#bebcdd"/><path d="m76.025 267.444c-6.284 0-11.98-4.049-14.115-9.943-2.131-5.881-.234-12.692 4.605-16.647 4.871-3.982 11.812-4.462 17.216-1.27 5.379 3.177 8.231 9.68 7.004 15.79-1.391 6.928-7.638 12.07-14.71 12.07z" fill="#e7e2ee"/><path d="m136.025 267.444c-6.284 0-11.98-4.049-14.115-9.943-2.131-5.882-.235-12.691 4.605-16.647 4.872-3.982 11.812-4.462 17.216-1.27 5.378 3.177 8.231 9.68 7.004 15.79-1.391 6.928-7.638 12.07-14.71 12.07z" fill="#e7e2ee"/><path d="m196.025 267.444c-6.284 0-11.98-4.05-14.115-9.943-2.131-5.881-.234-12.692 4.605-16.647 4.871-3.982 11.813-4.462 17.216-1.27 5.379 3.177 8.231 9.68 7.004 15.79-1.391 6.928-7.638 12.07-14.71 12.07z" fill="#e7e2ee"/><path d="m316.025 267.444c-6.283 0-11.98-4.05-14.115-9.943-2.131-5.881-.234-12.692 4.605-16.647 4.871-3.982 11.813-4.462 17.216-1.27 5.379 3.177 8.231 9.68 7.004 15.79-1.391 6.928-7.638 12.07-14.71 12.07z" fill="#bebcdd"/><path d="m436.025 207.443c-6.286 0-11.981-4.052-14.115-9.946-2.13-5.881-.234-12.688 4.605-16.644 4.872-3.983 11.812-4.463 17.216-1.27 5.378 3.177 8.231 9.68 7.004 15.79-1.391 6.929-7.639 12.07-14.71 12.07z" fill="#bebcdd"/><path d="m376.025 207.443c-6.286 0-11.98-4.051-14.115-9.946-2.13-5.881-.235-12.687 4.605-16.644 4.872-3.983 11.811-4.463 17.216-1.27 5.378 3.177 8.231 9.68 7.004 15.79-1.391 6.928-7.639 12.07-14.71 12.07z" fill="#bebcdd"/><path d="m76.025 207.443c-6.286 0-11.98-4.051-14.115-9.946-2.13-5.881-.234-12.688 4.605-16.644 4.872-3.983 11.811-4.463 17.216-1.27 5.378 3.177 8.231 9.68 7.004 15.79-1.391 6.929-7.639 12.07-14.71 12.07z" fill="#e7e2ee"/><path d="m136.025 207.443c-6.284 0-11.985-4.052-14.119-9.946-2.132-5.89-.225-12.679 4.608-16.644 4.864-3.989 11.818-4.459 17.216-1.27 5.379 3.177 8.231 9.679 7.004 15.79-1.39 6.929-7.637 12.07-14.709 12.07z" fill="#e7e2ee"/><path d="m196.025 207.443c-6.286 0-11.98-4.051-14.115-9.946-2.13-5.881-.235-12.687 4.605-16.644 4.872-3.983 11.811-4.463 17.216-1.27 5.378 3.177 8.231 9.68 7.004 15.79-1.391 6.928-7.639 12.07-14.71 12.07z" fill="#e7e2ee"/><path d="m316.025 207.443c-6.286 0-11.981-4.052-14.115-9.946-2.129-5.88-.233-12.689 4.605-16.644 4.861-3.973 11.827-4.478 17.218-1.27 5.371 3.196 8.232 9.666 7.003 15.79-1.392 6.93-7.638 12.07-14.711 12.07z" fill="#bebcdd"/><g><path d="m256.025 387.444c-6.286 0-11.979-4.047-14.115-9.943-2.131-5.882-.235-12.691 4.605-16.647 4.872-3.983 11.812-4.463 17.216-1.27 5.378 3.177 8.231 9.68 7.004 15.79-1.392 6.93-7.636 12.07-14.71 12.07z" fill="#e7e2ee"/><path d="m263.731 359.584c-2.373-1.402-5.041-2.094-7.701-2.095v29.954c7.071-.003 13.313-5.141 14.704-12.07 1.228-6.109-1.625-12.612-7.003-15.789z" fill="#bebcdd"/></g><g><path d="m256.025 327.444c-6.288 0-11.98-4.049-14.115-9.946-2.13-5.881-.234-12.688 4.605-16.644 4.871-3.982 11.812-4.462 17.216-1.27 5.379 3.177 8.231 9.68 7.004 15.79-1.392 6.929-7.636 12.07-14.71 12.07z" fill="#e7e2ee"/><path d="m263.731 299.584c-2.372-1.402-5.041-2.094-7.701-2.095v29.954c7.071-.003 13.313-5.142 14.704-12.07 1.228-6.11-1.624-12.612-7.003-15.789z" fill="#bebcdd"/></g><g><path d="m256.025 267.444c-6.283 0-11.98-4.049-14.115-9.943-2.131-5.882-.235-12.691 4.605-16.647 4.872-3.982 11.812-4.462 17.216-1.27 5.378 3.177 8.231 9.68 7.004 15.79-1.391 6.928-7.638 12.07-14.71 12.07z" fill="#e7e2ee"/><path d="m263.731 239.584c-2.372-1.401-5.041-2.094-7.701-2.095v29.954c7.069-.003 13.313-5.143 14.704-12.07 1.228-6.109-1.625-12.612-7.003-15.789z" fill="#bebcdd"/></g><g><path d="m256.025 207.443c-6.286 0-11.981-4.052-14.115-9.946-2.13-5.881-.234-12.688 4.605-16.644 4.872-3.983 11.812-4.463 17.216-1.27 5.378 3.177 8.231 9.68 7.004 15.79-1.391 6.929-7.639 12.07-14.71 12.07z" fill="#e7e2ee"/><path d="m263.731 179.584c-2.373-1.402-5.041-2.094-7.701-2.095v29.954c7.069-.003 13.313-5.143 14.704-12.07 1.228-6.109-1.624-12.612-7.003-15.789z" fill="#bebcdd"/></g></g></g></g><g><g fill="#8bb9ff"><path d="m436.025 79.663c-8.284 0-15-6.716-15-15v-44.572c0-8.284 6.716-15 15-15s15 6.716 15 15v44.571c0 8.285-6.716 15.001-15 15.001z"/><path d="m376.025 79.663c-8.284 0-15-6.716-15-15v-44.572c0-8.284 6.716-15 15-15s15 6.716 15 15v44.571c0 8.285-6.716 15.001-15 15.001z"/><path d="m316.025 79.663c-8.284 0-15-6.716-15-15v-44.572c0-8.284 6.716-15 15-15s15 6.716 15 15v44.571c0 8.285-6.716 15.001-15 15.001z"/></g><path d="m196.025 79.663c-8.284 0-15-6.716-15-15v-44.572c0-8.284 6.716-15 15-15s15 6.716 15 15v44.571c0 8.285-6.716 15.001-15 15.001z" fill="#9fb2da"/><path d="m136.025 79.663c-8.284 0-15-6.716-15-15v-44.572c0-8.284 6.716-15 15-15s15 6.716 15 15v44.571c0 8.285-6.716 15.001-15 15.001z" fill="#9fb2da"/><path d="m76.025 79.663c-8.284 0-15-6.716-15-15v-44.572c0-8.284 6.716-15 15-15s15 6.716 15 15v44.571c0 8.285-6.716 15.001-15 15.001z" fill="#9fb2da"/><g><path d="m256.025 79.663c-8.284 0-15-6.716-15-15v-44.572c0-8.284 6.716-15 15-15s15 6.716 15 15v44.571c0 8.285-6.716 15.001-15 15.001z" fill="#9fb2da"/><path d="m256.031 5.092v74.571c8.281-.003 14.994-6.717 14.994-15v-44.572c0-8.282-6.713-14.996-14.994-14.999z" fill="#8bb9ff"/></g></g></g><g><g><ellipse cx="393.441" cy="388.349" fill="#9fb2da" rx="118.585" ry="118.585" transform="matrix(.707 -.707 .707 .707 -159.368 391.949)"/><path d="m393.441 269.764v237.169c65.388 0 118.584-53.197 118.584-118.585s-53.197-118.584-118.584-118.584z" fill="#8bb9ff"/></g><g><g><ellipse cx="393.441" cy="388.349" fill="#f9f2f2" rx="88.584" ry="88.584" transform="matrix(.707 -.707 .707 .707 -159.368 391.949)"/><path d="m393.441 299.765v177.169c48.846 0 88.584-39.739 88.584-88.584s-39.739-88.585-88.584-88.585z" fill="#e7e2ee"/></g><g><path d="m430.667 404.962c0 20.559-16.667 37.226-37.226 37.226s-37.226-16.667-37.226-37.226c0-14.786 19.256-46.815 30.069-63.636 3.349-5.21 10.964-5.21 14.313 0 10.814 16.821 30.07 48.85 30.07 63.636z" fill="#ff6b6b"/><path d="m400.597 341.326c-1.675-2.605-4.416-3.908-7.157-3.908v104.769c20.559 0 37.226-16.667 37.226-37.226.001-14.785-19.255-46.814-30.069-63.635z" fill="#e20059"/></g></g></g></g></svg>